<svg width="0" height="0" class="hidden">
	<symbol fill="none" xmlns="http://www.w3.org/2000/svg" viewBox="0 0 120 120" id="advantage-card-icon1">
		<circle cx="60" cy="60" r="58.5" stroke="#000" stroke-opacity=".1" stroke-width="3">
		</circle>
		<path d="M82.715 46.811c-13.477-.184-22.153-12.184-22.246-12.276a.692.692 0 00-1.107 0c-.093.092-8.77 12.092-22.247 12.276a.63.63 0 00-.646.647c0 .276-2.584 27.692 23.262 38.953.092 0 .184.093.277.093.092 0 .184 0 .277-.093 25.754-11.169 23.261-38.677 23.261-38.953-.184-.37-.461-.647-.83-.647zm-22.8 38.123c-22.43-9.876-22.338-32.769-22.153-36.738 12-.462 20.03-9.415 22.153-12.092 2.123 2.677 10.154 11.63 22.154 12.092.185 3.97.277 26.862-22.154 36.739z" fill="#000" fill-opacity=".8">
		</path>
		<path d="M77.361 51.796c-7.569-1.477-13.384-5.815-16.984-9.139-.23-.212-.462-.435-.462-.435l-.461.435c-3.508 3.324-9.416 7.662-16.985 9.139-.214.053-.59.134-.59.134s.036.45.036.605c.554 7.2 3.508 20.4 17.631 27.692.092.092.185.092.277.092.092 0 .185 0 .277-.092 14.215-7.293 16.948-20.51 17.63-27.693l.065-.658s-.018-.006-.434-.08zM59.915 78.842c-12.923-6.83-15.877-18.83-16.523-25.754 7.292-1.569 12.923-5.63 16.523-8.953 3.6 3.323 9.323 7.292 16.523 8.953-.553 6.923-3.6 18.923-16.523 25.754z" fill="#000" fill-opacity=".8">
		</path>
		<path d="M56.038 55.212v3.046h-2.86v10.707h14.399V58.258h-2.861V55.21c0-2.4-1.939-4.43-4.431-4.43-2.493 0-4.246 2.03-4.246 4.43zm10.154 12.276H54.654v-7.846h11.631v7.846h-.093zm-8.676-12.276c0-1.662 1.292-3.047 2.953-3.047 1.662 0 3.047 1.385 3.047 3.047v3.046h-6V55.21z" fill="#000" fill-opacity=".8">
		</path>
		<path d="M60.377 61.95h-.739v3.323h1.477V61.95h-.738z" fill="#000" fill-opacity=".8">
		</path>
	</symbol>
	<symbol fill="none" xmlns="http://www.w3.org/2000/svg" viewBox="0 0 120 120" id="advantage-card-icon2">
		<circle cx="60" cy="60" r="58.5" stroke="#000" stroke-opacity=".1" stroke-width="3">
		</circle>
		<path d="M70.547 72.092c4.43 0 8.03-3.6 8.03-8.123 0-1.754.739-3.507 1.939-4.707 3.138-3.139 3.138-8.308 0-11.447-1.292-1.292-1.939-2.953-1.939-4.707 0-4.431-3.6-8.123-8.123-8.123-1.753 0-3.507-.739-4.707-1.939-3.139-3.138-8.308-3.138-11.446 0-1.293 1.293-2.954 1.939-4.708 1.939-4.43 0-8.123 3.6-8.123 8.123 0 1.754-.739 3.508-1.939 4.708-1.569 1.569-2.4 3.507-2.4 5.722 0 2.124.831 4.154 2.4 5.724 1.293 1.292 1.939 2.953 1.939 4.707 0 4.431 3.6 8.123 8.123 8.123 1.754 0 3.508.739 4.708 1.939 1.569 1.57 3.6 2.4 5.723 2.4 2.03 0 4.153-.83 5.723-2.4 1.384-1.293 3.046-1.939 4.8-1.939zm-15.139.924c-1.569-1.57-3.6-2.4-5.723-2.4-3.692 0-6.738-3.047-6.738-6.739 0-2.123-.831-4.154-2.4-5.723-1.293-1.292-1.939-2.954-1.939-4.708s.739-3.508 1.939-4.707c1.569-1.57 2.4-3.6 2.4-5.723 0-3.693 3.046-6.739 6.738-6.739 2.123 0 4.154-.83 5.723-2.4a7.24 7.24 0 014.708-1.754c1.754 0 3.415.646 4.708 1.939 1.569 1.477 3.6 2.307 5.723 2.307 3.692 0 6.646 3.047 6.646 6.739 0 2.123.83 4.154 2.4 5.723 2.584 2.584 2.584 6.83 0 9.508-1.57 1.569-2.4 3.6-2.4 5.723 0 3.692-3.046 6.738-6.739 6.738-2.123 0-4.153.83-5.723 2.4-2.492 2.492-6.738 2.492-9.323-.184z" fill="#000" fill-opacity=".8">
		</path>
		<path d="M76.454 53.538a.728.728 0 00-.738-.738.728.728 0 00-.738.738c0 8.216-6.739 14.954-15.047 15.047-8.215 0-14.953-6.739-15.046-15.047 0-2.307.462-4.43 1.477-6.461 2.677-5.17 8.031-8.492 13.754-8.492 6.277 0 12 3.969 14.123 9.969.092.369.554.554.923.461a.72.72 0 00.37-.369.588.588 0 000-.554C73.223 41.631 67.038 37.2 60.115 37.2c-3.138 0-6.185.923-8.861 2.585a16.047 16.047 0 00-5.908 6.738 16.997 16.997 0 00-1.57 7.108c0 9.046 7.385 16.43 16.431 16.43 9.046 0 16.246-7.476 16.246-16.523z" fill="#000" fill-opacity=".8">
		</path>
		<path d="M71.285 49.939c-.092-.277-.277-.462-.554-.462l-6.923-1.015-3.046-6.277c-.277-.462-1.015-.462-1.2 0l-3.139 6.277-6.83 1.015c-.277 0-.462.185-.554.462a.718.718 0 00.184.738l4.985 4.892-1.292 6.739c0 .277.092.554.277.646.184.185.461.185.738.092l6.185-3.23 6.184 3.23c.093.093.185.093.277.093.185 0 .277 0 .37-.093a.997.997 0 00.276-.646l-1.2-6.83 4.985-4.893c.277-.184.277-.462.277-.738zm-6.462 4.8c-.184.184-.276.369-.184.646l1.015 5.815-5.261-2.77c-.093-.091-.185-.091-.277-.091-.093 0-.185 0-.277.092l-5.262 2.77 1.016-5.816c0-.185 0-.462-.185-.646l-4.246-4.154 5.815-.831c.185 0 .462-.185.554-.37l2.585-5.26 2.584 5.26c.093.185.277.37.554.37l5.816.83-4.246 4.155zM55.5 77.63c-.369-.184-.738 0-.922.37l-4.154 8.862-2.585-7.2a.72.72 0 00-.37-.37.589.589 0 00-.553 0l-7.2 2.585 3.97-8.585c.184-.369 0-.738-.37-.923-.37-.184-.739 0-.923.37l-4.708 10.153c-.092.277-.092.554.093.739a.718.718 0 00.738.184l8.123-2.953 2.954 8.123c.092.277.37.461.646.461.277 0 .554-.184.646-.369l4.8-10.338c.37-.554.185-.924-.184-1.108zm25.477 5.909c.185-.185.277-.462.093-.739l-4.431-9.415c-.185-.37-.554-.462-.923-.37-.37.185-.462.554-.37.924l3.693 7.938-7.2-2.585a.589.589 0 00-.554 0 .72.72 0 00-.37.37l-2.492 7.107-3.877-8.4c-.184-.369-.553-.461-.923-.369-.369.185-.461.554-.369.923L67.87 88.8c.092.277.369.37.646.37a.694.694 0 00.646-.462l2.954-8.123 8.123 2.954c.277.276.554.184.738 0z" fill="#000" fill-opacity=".8">
		</path>
	</symbol>
	<symbol fill="none" xmlns="http://www.w3.org/2000/svg" viewBox="0 0 120 120" id="advantage-card-icon3">
		<circle cx="60" cy="60" r="58.5" stroke="#000" stroke-opacity=".1" stroke-width="3">
		</circle>
		<path d="M60 55.108a.728.728 0 00.738-.739c0-.461-.277-.738-.738-.738-3.416 0-6.277 2.77-6.277 6.277 0 3.508 2.77 6.277 6.277 6.277 3.508 0 6.277-2.77 6.277-6.277a.728.728 0 00-.739-.739c-.461 0-.738.277-.738.739 0 2.677-2.216 4.892-4.892 4.892-2.677 0-4.893-2.215-4.893-4.892 0-2.677 2.308-4.8 4.985-4.8z" fill="#000" fill-opacity=".8">
		</path>
		<path d="M79.662 44.585c-.278.184-.37.646-.185.923 3.138 4.154 4.707 9.138 4.707 14.4 0 13.477-10.8 24.277-24.184 24.277-13.385 0-24.277-10.8-24.277-24.185 0-13.385 10.892-24.277 24.277-24.277a24.224 24.224 0 0114.4 4.708c.277.184.738.184.923-.185.185-.277.185-.738-.185-.923-4.43-3.323-9.692-4.984-15.23-4.984-14.031 0-25.57 11.538-25.57 25.661 0 14.123 11.447 25.662 25.662 25.662A25.607 25.607 0 0085.662 60c0-5.538-1.754-10.8-4.985-15.23-.277-.278-.739-.37-1.016-.185z" fill="#000" fill-opacity=".8">
		</path>
		<path d="M70.8 44.954c.185-.277.092-.739-.185-.923-3.138-2.123-6.738-3.139-10.523-3.139-10.523 0-19.2 8.585-19.2 19.2 0 10.616 8.585 19.2 19.2 19.2 10.616 0 19.2-8.584 19.2-19.2 0-3.784-1.107-7.384-3.138-10.523-.185-.277-.646-.369-.923-.184-.277.184-.37.646-.185.923C76.985 53.169 78 56.585 78 60.092c0 9.785-7.938 17.816-17.815 17.816a17.767 17.767 0 01-17.816-17.816 17.767 17.767 0 0117.816-17.815c3.507 0 6.923 1.015 9.784 2.954.185.184.554.092.831-.277z" fill="#000" fill-opacity=".8">
		</path>
		<path d="M66.092 49.662c.185-.37 0-.739-.277-.923-1.754-.923-3.784-1.385-5.815-1.385-7.016 0-12.739 5.723-12.739 12.739 0 7.015 5.723 12.738 12.739 12.738 7.015 0 12.738-5.723 12.738-12.739 0-2.03-.461-3.969-1.384-5.815-.185-.37-.554-.462-.923-.277-.37.185-.462.554-.277.923.83 1.57 1.2 3.323 1.2 5.17A11.346 11.346 0 0160 71.445a11.346 11.346 0 01-11.354-11.353A11.346 11.346 0 0160 48.739c1.846 0 3.508.461 5.17 1.2.276.184.738 0 .922-.277z" fill="#000" fill-opacity=".8">
		</path>
		<path d="M86.77 38.123h-3.877l3.415-3.508a.724.724 0 000-1.015c-.277-.277-.646-.184-.923.092l-3.416 3.416V33.23a.728.728 0 00-.738-.739c-.462 0-.738.277-.738.739v5.261L59.539 59.54a.724.724 0 000 1.015.706.706 0 00.461.185c.185 0 .37-.093.462-.185l21.046-21.046h5.261c.37 0 .739-.277.739-.739 0-.461-.37-.646-.739-.646z" fill="#000" fill-opacity=".8">
		</path>
	</symbol>
	<symbol fill="none" xmlns="http://www.w3.org/2000/svg" viewBox="0 0 120 120" id="advantage-card-icon4">
		<circle cx="60" cy="60" r="58.5" stroke="#000" stroke-opacity=".1" stroke-width="3">
		</circle>
		<path d="M75.293 83.82H39.679V48.444l12.264-12.185h22.72V49.78a.62.62 0 00.63.629c.392 0 .628-.236.628-.63V35.63a.62.62 0 00-.629-.629H51.709a.6.6 0 00-.393.157L38.657 47.815a.6.6 0 00-.157.393V84.37a.62.62 0 00.629.629h36.164a.62.62 0 00.628-.629c0-.393-.314-.55-.629-.55z" fill="#000" fill-opacity=".8">
		</path>
		<path d="M52.258 48.207v-9.434a.62.62 0 00-.63-.629c-.392 0-.628.236-.628.63v8.883h-8.727a.62.62 0 00-.629.629c0 .393.236.629.63.629h9.433a.755.755 0 00.55-.708zM69.79 53.16H43.847a.62.62 0 00-.63.63c0 .392.237.628.63.628H69.79a.62.62 0 00.629-.629.62.62 0 00-.629-.629zm.55 5.268a.62.62 0 00-.629-.63H43.768a.62.62 0 00-.63.63c0 .393.236.629.63.629H69.71a.62.62 0 00.629-.63zm-26.493 4.166a.62.62 0 00-.63.63c0 .392.237.628.63.628h21.226a.62.62 0 00.629-.629c0-.393-.236-.629-.629-.629H43.847z" fill="#000" fill-opacity=".8">
		</path>
		<path d="M77.494 60.236c-4.56 0-8.57 2.83-10.142 7.075H45.497a.6.6 0 00-.393.157l-3.145 3.145a.6.6 0 00-.157.393c0 .157 0 .236.078.393l3.145 3.145a.6.6 0 00.393.157h3.223a.6.6 0 00.394-.157l1.808-1.808 1.965 1.808a.6.6 0 00.393.157h.786a.6.6 0 00.393-.157l1.808-1.808 1.809 1.808a.6.6 0 00.393.157h.786a.6.6 0 00.393-.157l1.808-1.808 1.808 1.808a.6.6 0 00.393.157h3.538c1.573 4.246 5.582 7.076 10.142 7.076 5.975 0 10.849-4.874 10.849-10.85 0-5.974-4.639-10.691-10.613-10.691zm0 20.44c-4.246 0-7.862-2.673-9.198-6.682a.591.591 0 00-.55-.393H64.05l-2.044-2.044a.6.6 0 00-.393-.158.6.6 0 00-.393.158l-2.123 1.965h-.314l-2.044-2.044a.617.617 0 00-.865 0l-2.044 2.044h-.314l-2.044-2.044a.617.617 0 00-.865 0l-2.044 2.044h-2.83l-2.595-2.594 2.595-2.595h22.09a.591.591 0 00.551-.393c1.337-3.93 4.953-6.603 9.12-6.603a9.663 9.663 0 019.67 9.67 9.663 9.663 0 01-9.67 9.67z" fill="#000" fill-opacity=".8">
		</path>
		<path d="M81.424 66.918a4.06 4.06 0 00-4.088 4.088 4.06 4.06 0 004.088 4.088 4.06 4.06 0 004.088-4.088 4.06 4.06 0 00-4.088-4.088zm0 6.997c-1.572 0-2.909-1.336-2.909-2.909 0-1.572 1.337-2.909 2.91-2.909 1.572 0 2.908 1.337 2.908 2.91a2.902 2.902 0 01-2.909 2.908zM70.34 38.773a.62.62 0 00-.63-.629h-9.433a.62.62 0 00-.63.63V49.78a.62.62 0 00.63.629h9.434a.62.62 0 00.629-.63V38.774zM69.16 49.23h-8.254v-9.827h8.255v9.827z" fill="#000" fill-opacity=".8">
		</path>
	</symbol>
	<symbol fill="none" xmlns="http://www.w3.org/2000/svg" viewBox="0 0 80 80" id="activities1">
		<circle cx="40" cy="40" r="39.5" stroke="#000" stroke-opacity=".1">
		</circle>
		<g clip-path="url(#clip0)" fill="#DEC377">
			<path d="M59.64 43.99c-1.17-1.627-2.354-1.653-5.32-.093l-5.75 3.515c-.851.453-2.6.59-4.296.618.301-.627.167-1.376-.403-2.227a5.531 5.531 0 00-2.078-1.839A5.936 5.936 0 0044 39.334a6.008 6.008 0 00-6-6.001c-3.31 0-6 2.692-6 6 0 .988.245 1.93.684 2.771-.009-.006-.018-.011-.026-.018-2.393-1.805-6.392-2.06-7.991-2.087v-2.018H20v21.353h4.667v-2h8.667c1.36 0 2.732-.104 4.077-.308l8.642-1.314c.315-.004.634-.042.918-.106.796-.112 1.557-.492 2.201-1.1l10.105-7.87.016-.012a1.951 1.951 0 00.346-2.633zm-24.193-.757a4.635 4.635 0 01-2.113-3.9A4.672 4.672 0 0138 34.666a4.672 4.672 0 014.666 4.667 4.63 4.63 0 01-2.434 4.093c-.083-.016-.167-.024-.25-.037-.084-.012-.166-.027-.25-.036a5.936 5.936 0 00-.654-.039h-2.6c-.335 0-.682-.027-1.032-.081zM23.333 58h-2V39.315h2V58zM58.45 45.592l-10.122 7.882-.051.045c-.447.427-.962.693-1.556.779a3.32 3.32 0 01-.72.081l-8.79 1.329a25.94 25.94 0 01-3.876.293h-8.667V41.335c1.478.03 5.137.269 7.19 1.816.89.672 1.958 1.128 3.096 1.346l.01.006.127.022c.006.002.012.002.02.003.218.037.44.067.663.087l.02.002c.227.02.456.031.685.031h2.6c.367 0 .734.043 1.09.129l.043.01c1.048.26 1.96.877 2.551 1.76.28.417.391.765.297.928-.178.308-1.004.497-1.842.534a45.335 45.335 0 00-.739-.008h-6.477c-2.088 0-3.334.997-3.334 2.667a.667.667 0 101.333 0c0-.33 0-1.334 2-1.334h6.463a8.4 8.4 0 00.808.009l.355.006c3.129.058 6.063.042 7.606-.78l5.745-3.513c2.75-1.445 3.026-1.057 3.578-.288a.615.615 0 01-.106.824z">
			</path>
			<path d="M41.334 39.333A3.337 3.337 0 0038.001 36a3.337 3.337 0 00-3.334 3.333 3.337 3.337 0 003.334 3.334 3.337 3.337 0 003.333-3.334zm-3.333 2c-1.103 0-2-.897-2-2 0-1.102.897-2 2-2 1.102 0 2 .898 2 2 0 1.103-.898 2-2 2zM48 32.666c3.31 0 6.001-2.692 6.001-6s-2.691-6-6-6-6 2.692-6 6 2.691 6 6 6zM48 22a4.672 4.672 0 014.668 4.667A4.672 4.672 0 0148 31.333a4.672 4.672 0 01-4.667-4.667A4.672 4.672 0 0148.001 22z">
			</path>
			<path d="M48 30a3.337 3.337 0 003.334-3.334 3.337 3.337 0 00-3.333-3.333 3.337 3.337 0 00-3.334 3.333A3.337 3.337 0 0048.002 30zm0-5.334c1.104 0 2.001.898 2.001 2 0 1.103-.897 2-2 2s-2-.897-2-2c0-1.102.897-2 2-2z">
			</path>
		</g>
		<defs>
			<clipPath id="clip0">
				<path fill="#fff" transform="translate(20 20)" d="M0 0h40v40H0z">
				</path>
			</clipPath>
		</defs>
	</symbol>
	<symbol fill="none" xmlns="http://www.w3.org/2000/svg" viewBox="0 0 80 80" id="activities2">
		<circle cx="40" cy="40" r="39.5" stroke="#000" stroke-opacity=".1">
		</circle>
		<path d="M55.333 47.38v-8.047H40.667v-6.712a5.339 5.339 0 004.666-5.288A5.34 5.34 0 0040 22a5.34 5.34 0 00-5.333 5.333 5.339 5.339 0 004.666 5.288v6.712H24.667v8.046C22.04 47.71 20 49.952 20 52.667A5.34 5.34 0 0025.333 58a5.34 5.34 0 005.334-5.333A5.339 5.339 0 0026 47.379v-6.712h13.333v6.712a5.339 5.339 0 00-4.666 5.288A5.34 5.34 0 0040 58a5.34 5.34 0 005.333-5.333 5.339 5.339 0 00-4.666-5.288v-6.712H54v6.712a5.339 5.339 0 00-4.667 5.288A5.34 5.34 0 0054.667 58 5.34 5.34 0 0060 52.667a5.339 5.339 0 00-4.667-5.288zM36 27.332c0-2.206 1.794-4 4-4s4 1.794 4 4-1.794 4-4 4-4-1.794-4-4zm-6.667 25.334c0 2.206-1.794 4-4 4s-4-1.794-4-4 1.794-4 4-4 4 1.794 4 4zm14.667 0c0 2.206-1.794 4-4 4s-4-1.794-4-4 1.794-4 4-4 4 1.794 4 4zm10.667 4c-2.206 0-4-1.794-4-4s1.794-4 4-4 4 1.794 4 4-1.794 4-4 4z" fill="#DEC377">
		</path>
	</symbol>
	<symbol fill="none" xmlns="http://www.w3.org/2000/svg" viewBox="0 0 80 80" id="activities3">
		<circle cx="40" cy="40" r="39.5" stroke="#000" stroke-opacity=".1">
		</circle>
		<g clip-path="url(#clip0)" fill="#DEC377">
			<path d="M59.473 20.195a.666.666 0 00-.943 0l-2.472 2.472H40.536L21.02 42.342a2.336 2.336 0 00-.689 1.663c0 .628.245 1.22.69 1.663l13.644 13.645A2.358 2.358 0 0038 59.306l19-19.513V23.609l2.471-2.471a.667.667 0 000-.943zM55.668 39.25L37.05 58.37a1.02 1.02 0 01-1.441 0L21.964 44.727a1.013 1.013 0 01-.299-.72c0-.273.106-.529.301-.724L41.091 24h13.634l-3.222 3.222a3.312 3.312 0 00-1.836-.555A3.337 3.337 0 0046.334 30a3.337 3.337 0 003.333 3.334A3.337 3.337 0 0053.002 30c0-.678-.206-1.308-.555-1.835l3.222-3.222V39.25zm-4-9.25c0 1.103-.898 2-2 2-1.103 0-2-.897-2-2 0-1.102.897-2 2-2 .307 0 .596.076.856.201l-1.328 1.328a.666.666 0 10.943.943l1.328-1.328c.125.26.2.548.2.856z">
			</path>
			<path d="M46.943 34.088a.666.666 0 10-.943-.943l-.498.498a5.977 5.977 0 00-4.246-1.292 3.93 3.93 0 00-2.741 1.462 4.197 4.197 0 00-.9 3.15l.507 4.06-5.965 5.965a4.67 4.67 0 01.434-6.09.666.666 0 10-.943-.944 6.006 6.006 0 00-.444 7.987l-.76.761a.666.666 0 10.942.943l.762-.762a5.988 5.988 0 004.245 1.293 3.923 3.923 0 002.74-1.461 4.196 4.196 0 00.901-3.15l-.507-4.06 5.965-5.966a4.671 4.671 0 01-.434 6.092.666.666 0 10.943.943 6.008 6.008 0 00.443-7.987l.499-.499zM38.71 45.731a2.856 2.856 0 01-.613 2.145 2.604 2.604 0 01-1.816.973 4.697 4.697 0 01-3.181-.917l5.23-5.232.38 3.03zm.227-8.933a2.857 2.857 0 01.612-2.145 2.61 2.61 0 011.817-.974 4.674 4.674 0 013.181.918l-5.231 5.231-.38-3.03z">
			</path>
		</g>
		<defs>
			<clipPath id="clip0">
				<path fill="#fff" transform="translate(20 20)" d="M0 0h40v40H0z">
				</path>
			</clipPath>
		</defs>
	</symbol>
	<symbol fill="none" xmlns="http://www.w3.org/2000/svg" viewBox="0 0 80 80" id="activities4">
		<circle cx="40" cy="40" r="39.5" stroke="#000" stroke-opacity=".1">
		</circle>
		<path fill-rule="evenodd" clip-rule="evenodd" d="M40 21c-10.19 0-18.507 8.022-18.979 18.095H21v8.947a4.926 4.926 0 109.852 0v-4.02a4.926 4.926 0 00-4.926-4.927h-3.093C23.303 30.022 30.81 22.81 40 22.81c9.19 0 16.697 7.212 17.167 16.285h-3.093a4.926 4.926 0 00-4.926 4.926v4.021a4.926 4.926 0 008.043 3.815v.206c0 1.94-.329 3.235-.854 4.022-.482.723-1.186 1.105-2.263 1.105H43.117V59h10.957c1.604 0 2.91-.623 3.769-1.91.815-1.224 1.157-2.944 1.157-5.027V40c0-10.493-8.507-19-19-19zM22.81 48.042v-7.137h3.116a3.116 3.116 0 013.116 3.116v4.021a3.116 3.116 0 11-6.233 0zm31.264-7.137h3.117v7.137a3.116 3.116 0 01-6.233 0v-4.02a3.116 3.116 0 013.116-3.117z" fill="#DEC377">
		</path>
	</symbol>
	<symbol fill="none" xmlns="http://www.w3.org/2000/svg" viewBox="0 0 80 80" id="activities5">
		<circle cx="40" cy="40" r="39.5" stroke="#000" stroke-opacity=".1">
		</circle>
		<path d="M53.036 20H26.964L20 31.142V60h40V31.142L53.036 20zm5.095 10.667H40.667v-9.334h11.63l5.834 9.334zm-30.428-9.334h11.63v9.334H21.87l5.834-9.334zm-6.37 37.334V32h37.334v26.667H21.333z" fill="#DEC377">
		</path>
		<path d="M44 35.333h-8c-1.103 0-2 .898-2 2 0 1.103.897 2 2 2h8c1.103 0 2-.897 2-2 0-1.102-.897-2-2-2zM44 38h-8a.667.667 0 010-1.333h8A.667.667 0 0144 38zm1.333 16.667H34.667a.667.667 0 100 1.333h10.666a.667.667 0 100-1.333zM36.667 46c.368 0 .666.299.666.667v4.391l.862-.862a.665.665 0 01.943 0c.26.26.26.682 0 .943l-2 2a.668.668 0 01-.944 0l-1.999-2a.666.666 0 11.943-.943l.862.862v-4.39c0-.37.299-.667.667-.667zm7.138 7.138a.668.668 0 01-.944 0l-1.999-2a.666.666 0 11.943-.942l.862.862v-4.39a.666.666 0 111.333 0v4.39l.862-.862a.665.665 0 01.943 0c.26.26.26.682 0 .943l-2 2z" fill="#DEC377">
		</path>
	</symbol>
	<symbol fill="none" xmlns="http://www.w3.org/2000/svg" viewBox="0 0 80 80" id="activities6">
		<circle cx="40" cy="40" r="39.5" stroke="#000" stroke-opacity=".1">
		</circle>
		<path d="M60 31.162h-5.954v-2.564h-16.22l-1.923-5.127H22v31.405h32.046v-.56L60 31.162zm-1.654 1.282l-4.3 16.725V32.444h4.3zm-35.064-7.691h11.733l1.923 5.127h15.826v23.714H23.282V24.753z" fill="#DEC377">
		</path>
		<path d="M25.846 51.03h15.381v-9.614H25.846v9.614zm1.281-8.332h12.819v7.05H27.127v-7.05z" fill="#DEC377">
		</path>
		<path d="M34.818 47.185H29.05a.64.64 0 100 1.282h5.768a.64.64 0 100-1.282zm-5.768-1.923h2.564a.64.64 0 100-1.282H29.05a.64.64 0 100 1.282zm8.973-1.282H36.74a.64.64 0 100 1.282h1.282a.64.64 0 100-1.282zm-1.096 3.39a.657.657 0 00-.186.456c0 .173.07.333.186.448a.64.64 0 00.91.007.674.674 0 00.186-.455.673.673 0 00-.186-.455.671.671 0 00-.91 0zm-2.749-2.108c.166 0 .333-.07.455-.186a.674.674 0 00.185-.455.66.66 0 00-.185-.455c-.238-.237-.68-.237-.91 0a.67.67 0 00-.186.455c0 .167.07.334.185.455a.672.672 0 00.456.186z" fill="#DEC377">
		</path>
	</symbol>
	<symbol fill="none" xmlns="http://www.w3.org/2000/svg" viewBox="0 0 80 80" id="activities7">
		<circle cx="40" cy="40" r="39.5" stroke="#000" stroke-opacity=".1">
		</circle>
		<g clip-path="url(#clip0)">
			<path d="M56.41 46H46v-4h-2.666v-4.162c0-1.425.614-2.764 1.644-3.583A7.949 7.949 0 0048 28a8.01 8.01 0 00-2.675-5.97 8.037 8.037 0 00-6.263-1.976c-3.569.406-6.508 3.281-6.987 6.836-.38 2.816.704 5.555 2.902 7.329 1.058.854 1.69 2.253 1.69 3.742V42H34v4H23.59c-.877 0-1.59.713-1.59 1.59v7.487c0 .876.713 1.59 1.59 1.59h.47A4.003 4.003 0 0028 60.001h24.001a4.004 4.004 0 003.94-3.334h.47c.877 0 1.591-.713 1.591-1.59V47.59A1.595 1.595 0 0056.41 46zM35.814 33.18c-1.831-1.477-2.736-3.763-2.417-6.112.4-2.96 2.846-5.351 5.817-5.69 1.933-.218 3.788.364 5.224 1.646A6.673 6.673 0 0146.668 28c0 2.04-.918 3.94-2.52 5.212-1.365 1.085-2.147 2.771-2.147 4.626v4.161h-4v-4.038c-.001-1.916-.798-3.66-2.187-4.78zm-.48 10.153h9.333V46h-9.334v-2.667zM52 58.667H28a2.67 2.67 0 01-2.582-2h29.165a2.67 2.67 0 01-2.582 2zm4.667-3.59a.258.258 0 01-.257.257H23.59a.258.258 0 01-.257-.257V47.59c0-.142.115-.257.257-.257h32.82c.142 0 .257.115.257.257v7.487z" fill="#DEC377">
			</path>
		</g>
		<defs>
			<clipPath id="clip0">
				<path fill="#fff" transform="translate(20 20)" d="M0 0h40v40H0z">
				</path>
			</clipPath>
		</defs>
	</symbol>
	<symbol fill="none" xmlns="http://www.w3.org/2000/svg" viewBox="0 0 80 80" id="activities8">
		<circle cx="40" cy="40" r="39.5" stroke="#000" stroke-opacity=".1">
		</circle>
		<g clip-path="url(#clip0)" fill="#DEC377">
			<path d="M53.494 54.6H50.19a.66.66 0 010-1.321h3.303a5.29 5.29 0 005.285-5.285v-9.248a5.29 5.29 0 00-5.285-5.284H50.19a.66.66 0 010-1.321h3.303a6.613 6.613 0 016.606 6.605v9.248a6.613 6.613 0 01-6.606 6.606z">
			</path>
			<path d="M53.494 50.636H50.19a.66.66 0 010-1.32h3.303a1.321 1.321 0 001.321-1.322v-9.248a1.32 1.32 0 00-1.321-1.32H50.19a.66.66 0 010-1.322h3.303a2.642 2.642 0 012.642 2.642v9.248a2.642 2.642 0 01-2.642 2.642z">
			</path>
			<path d="M48.87 57.242H27.732a1.982 1.982 0 01-1.982-1.982V31.48a1.982 1.982 0 011.982-1.982H48.87a1.982 1.982 0 011.982 1.982v23.78a1.982 1.982 0 01-1.982 1.982zM27.732 30.82a.66.66 0 00-.66.661v23.78a.66.66 0 00.66.661H48.87a.66.66 0 00.66-.66V31.48a.66.66 0 00-.66-.66H27.732zm5.284-2.643a.66.66 0 01-.467-1.128 1.52 1.52 0 000-2.368 2.84 2.84 0 010-4.237.66.66 0 11.934.934 1.519 1.519 0 000 2.369 2.84 2.84 0 010 4.237.66.66 0 01-.467.193zm5.284 0a.66.66 0 01-.466-1.128 1.519 1.519 0 000-2.368 2.84 2.84 0 010-4.237.66.66 0 11.934.934 1.52 1.52 0 000 2.369 2.84 2.84 0 010 4.237.66.66 0 01-.467.193zm5.285 0a.66.66 0 01-.467-1.128 1.52 1.52 0 000-2.368 2.84 2.84 0 010-4.237.66.66 0 11.934.934 1.519 1.519 0 000 2.369 2.84 2.84 0 010 4.237.66.66 0 01-.467.193z">
			</path>
		</g>
		<defs>
			<clipPath id="clip0">
				<path fill="#fff" transform="translate(20 20)" d="M0 0h40v40H0z">
				</path>
			</clipPath>
		</defs>
	</symbol>
	<symbol fill="none" xmlns="http://www.w3.org/2000/svg" viewBox="0 0 80 80" id="activities9">
		<circle cx="40" cy="40" r="39.5" stroke="#000" stroke-opacity=".1">
		</circle>
		<path d="M33.513 37.63h10.474a.623.623 0 00.625-.626V35.26a5.862 5.862 0 10-11.724 0v1.745a.624.624 0 00.625.625zm.625-2.371a4.612 4.612 0 019.224 0v1.12h-9.224v-1.12z" fill="#DEC377">
		</path>
		<path d="M52.756 40.637v-4.175h2.869a.625.625 0 00.617-.723 15.79 15.79 0 00-3.486-6.924v-6.94a.625.625 0 00-.625-.625h-5.819a.625.625 0 00-.624.625v1.564a28.43 28.43 0 00-6.82-2.178.638.638 0 00-.236 0C23.248 24.223 21.276 35.625 21.258 35.74a.625.625 0 00.617.722h2.869v15.044h-1.125a.624.624 0 00-.625.625v3.494a.625.625 0 00.625.625H43.02a9.367 9.367 0 109.736-15.613zM25.37 35.212h-2.701c.7-2.433 3.88-10.305 16.082-12.7a26.422 26.422 0 017.27 2.491.625.625 0 00.917-.553V22.5h4.57v6.544c0 .148.052.292.149.405a15.832 15.832 0 013.175 5.763h-2.7a.626.626 0 00-.625.625v4.407c-.043-.01-.088-.013-.131-.023a9.205 9.205 0 00-1.044-.166 9.417 9.417 0 00-.956-.055 9.24 9.24 0 00-4.85 1.363.617.617 0 00-.538-.325h-5.222l-.015-.003-.015.003h-5.222a.625.625 0 00-.625.625v9.843h-6.894V35.837a.623.623 0 00-.625-.625zm17.297 7.63a9.507 9.507 0 00-.39.426c-.1.116-.2.231-.296.352-.118.15-.227.307-.335.464-.086.125-.174.249-.254.378-.1.164-.19.333-.281.502-.07.132-.145.262-.209.397-.084.177-.155.36-.227.542-.054.136-.113.268-.16.406-.068.194-.12.394-.173.593-.036.133-.08.262-.11.397-.05.224-.082.454-.116.683-.017.114-.043.226-.056.341-.039.35-.059.7-.059 1.052a9.415 9.415 0 00.086 1.216c.034.263.08.525.135.784.01.043.013.088.023.131h-.869v-9.218h3.87c-.087.074-.162.157-.245.233a9.66 9.66 0 00-.334.32zm-8.528 8.664v-9.218h3.987v9.218h-3.987zM24.244 55v-2.244h14.494l.012.003.012-.003h1.867c.079.203.165.403.258.6.004.01.01.018.014.027.142.297.3.586.473.866l.082.137c.133.21.272.415.421.614H24.244zm25.131 2.5a8.12 8.12 0 01-5.4-14.187 8.145 8.145 0 016.052-2.037 8.125 8.125 0 01-.652 16.224z" fill="#DEC377">
		</path>
		<path d="M50.109 48.995h-1.223a1.332 1.332 0 010-2.663h2.446a.625.625 0 100-1.25H50V43.75a.625.625 0 00-1.25 0v1.346a2.576 2.576 0 00.136 5.149h1.223a1.087 1.087 0 110 2.173h-2.69a.625.625 0 100 1.25h1.331V55A.625.625 0 1050 55v-1.332h.109a2.337 2.337 0 100-4.673z" fill="#DEC377">
		</path>
	</symbol>
	<symbol fill="none" xmlns="http://www.w3.org/2000/svg" viewBox="0 0 120 120" id="pluses-card-icon4">
		<circle cx="60" cy="60" r="58.5" stroke="#000" stroke-opacity=".1" stroke-width="3">
		</circle>
		<path d="M81.416 47.596l3.877-3.877c1.015-1.015 1.015-2.584 0-3.6l-3.877-3.877c-.277-.277-.554-.461-.831-.553-.277-.093-.646-.185-.923-.185-.646 0-1.293.277-1.754.738L74.03 40.12 39.969 73.996c-.092.093-.092.185-.184.277l-3.323 9.785a.718.718 0 00.184.738c.185.092.37.185.554.185h.185l9.784-3.23c.093 0 .185-.093.277-.186l33.97-33.969zM46.985 80.088l-2.308-2.307 32.954-32.954 2.308 2.308-32.954 32.953zm-6.277-4.338l2.492 2.492 2.492 2.493-2.492.83-3.323-3.323.83-2.492zm38.03-38.585a1.17 1.17 0 011.662 0l3.877 3.877a1.17 1.17 0 010 1.662l-3.415 3.415-2.77-2.769-2.769-2.77 3.416-3.415zM74.4 41.504l2.308 2.308-33.046 32.953-2.308-2.307L74.4 41.504zM39.416 79.719l2.307 2.308-3.507 1.2 1.2-3.508zm49.199-25.477h-10.43a.728.728 0 00-.739.739c0 .461.277.738.739.738h10.43c.37 0 .739-.277.739-.738a.728.728 0 00-.739-.739zm-57.23 10.616h14.123a.728.728 0 00.738-.739c0-.462-.277-.738-.738-.738H31.385a.728.728 0 00-.739.738c0 .462.37.739.739.739zm57.231-1.385H68.954a.728.728 0 00-.738.738c0 .462.277.739.738.739h19.662a.728.728 0 00.738-.739.728.728 0 00-.738-.738zm0 9.231H59.723a.728.728 0 00-.738.738c0 .462.277.739.738.739h28.893a.728.728 0 00.738-.739.728.728 0 00-.738-.738zM48 37.165h25.2c.37 0 .738-.277.738-.738 0-.462-.276-.739-.738-.739H48a.728.728 0 00-.739.739c0 .461.37.738.739.738zm-6.615 9.231h19.384c.37 0 .739-.277.739-.738 0-.462-.277-.739-.739-.739H41.385a.728.728 0 00-.739.739c0 .461.37.738.739.738zm-10 9.231h23.354a.728.728 0 00.738-.739c0-.461-.277-.738-.738-.738H31.385a.728.728 0 00-.739.738c0 .462.37.739.739.739zm41.538 26.308h-22.43a.728.728 0 00-.74.738c0 .462.278.739.74.739h22.43c.37 0 .739-.277.739-.739a.728.728 0 00-.739-.738z" fill="#000" fill-opacity=".8">
		</path>
	</symbol>
	<symbol fill="none" xmlns="http://www.w3.org/2000/svg" viewBox="0 0 120 120" id="pluses-card-icon3">
		<circle cx="60" cy="60" r="58.5" stroke="#000" stroke-opacity=".1" stroke-width="3">
		</circle>
		<path d="M67.627 76.096c4.43 0 8.677-1.292 12.37-3.785l8.584 3.785c.092 0 .184.093.277.093a.706.706 0 00.461-.185.717.717 0 00.185-.739l-3.046-9.877c2.03-3.415 3.046-7.2 3.046-11.169 0-12.092-9.877-21.969-21.97-21.969-12.092 0-21.784 9.785-21.784 21.877 0 12.092 9.785 21.97 21.877 21.97zm0-42.461c11.354 0 20.585 9.23 20.585 20.584 0 3.785-1.016 7.477-3.047 10.708-.092.184-.092.37-.092.554l2.677 8.677-7.57-3.323a.565.565 0 00-.645.092c-3.508 2.492-7.57 3.784-11.908 3.784-11.354 0-20.585-9.23-20.585-20.584s9.231-20.492 20.585-20.492z" fill="#000" fill-opacity=".8">
		</path>
		<path d="M57.231 49.777c-2.4 0-4.338 1.938-4.338 4.43 0 2.493 1.938 4.431 4.338 4.431 2.4 0 4.43-1.938 4.43-4.43 0-2.493-2.03-4.431-4.43-4.431zm0 7.384c-1.662 0-2.954-1.384-2.954-3.046s1.385-3.046 2.954-3.046c1.57 0 3.046 1.384 3.046 3.046s-1.384 3.046-3.046 3.046zm6.739-3.046c0 2.4 1.938 4.431 4.43 4.431 2.4 0 4.339-1.938 4.339-4.43 0-2.493-1.939-4.431-4.339-4.431-2.492.092-4.43 2.03-4.43 4.43zm4.338-2.954c1.661 0 2.954 1.385 2.954 3.047 0 1.661-1.385 3.046-2.954 3.046-1.57 0-3.046-1.385-3.046-3.046 0-1.662 1.384-3.047 3.046-3.047zm11.077 7.385c2.4 0 4.43-1.938 4.43-4.43 0-2.493-1.938-4.431-4.43-4.431s-4.43 1.938-4.43 4.43c0 2.493 2.03 4.431 4.43 4.431zm0-7.385c1.661 0 3.046 1.385 3.046 3.047 0 1.661-1.385 3.046-3.046 3.046-1.662 0-3.046-1.385-3.046-3.046 0-1.662 1.384-3.047 3.046-3.047z" fill="#000" fill-opacity=".8">
		</path>
		<path d="M66.462 78.485c-3.785 3.507-8.677 5.353-13.847 5.353a20.51 20.51 0 01-11.907-3.784.567.567 0 00-.646-.092l-7.57 3.323 2.677-8.677c.093-.185 0-.37-.092-.554-1.938-3.23-3.046-6.923-3.046-10.708 0-8.492 5.077-15.969 12.923-19.107.37-.185.554-.554.37-.924-.185-.369-.555-.553-.924-.369C36 46.27 30.554 54.3 30.554 63.346c0 3.97 1.015 7.846 3.046 11.17l-2.861 9.876a.718.718 0 00.184.739.705.705 0 00.462.184c.092 0 .184 0 .277-.092l8.584-3.784a21.944 21.944 0 0012.37 3.784c5.446 0 10.707-2.03 14.769-5.723a.724.724 0 000-1.015c-.185-.185-.646-.185-.923 0z" fill="#000" fill-opacity=".8">
		</path>
	</symbol>
	<symbol fill="none" xmlns="http://www.w3.org/2000/svg" viewBox="0 0 120 120" id="pluses-card-icon2">
		<circle cx="60" cy="60" r="58.5" stroke="#000" stroke-opacity=".1" stroke-width="3">
		</circle>
		<path d="M77.539 63.969h-.462c.739-1.292 1.2-2.861 1.2-3.877 0-2.4-2.03-4.43-4.43-4.43s-4.431 2.03-4.431 4.43c0 1.016.461 2.585 1.2 3.877h-.462c-.923 0-1.754.277-2.492.738-.646-1.569-2.216-2.584-3.97-2.584h-.461c.738-1.292 1.2-2.862 1.2-3.877 0-2.4-2.03-4.43-4.43-4.43s-4.431 2.03-4.431 4.43c0 1.015.461 2.585 1.2 3.877h-.462c-1.754 0-3.323 1.108-3.97 2.584-.738-.461-1.569-.738-2.492-.738h-.461c.738-1.292 1.2-2.861 1.2-3.877 0-2.4-2.03-4.43-4.43-4.43s-4.432 2.03-4.432 4.43c0 1.016.462 2.585 1.2 3.877h-.461c-2.4 0-4.431 1.938-4.431 4.43v10.155c0 .369.277.738.739.738h2.953V88.8c0 .369.277.738.739.738h7.477a.728.728 0 00.738-.738V70.338a.728.728 0 00-.738-.738c-.462 0-.739.277-.739.738v17.816h-2.4V76.615a.728.728 0 00-.738-.738c-.462 0-.739.277-.739.738V87.97h-2.4V70.154a.728.728 0 00-.738-.739c-.462 0-.739.277-.739.739v7.661h-2.215v-9.507c0-1.662 1.385-3.047 3.046-3.047h1.477c.646.647 1.385 1.016 2.215 1.016.831 0 1.57-.37 2.216-1.016h1.477c.83 0 1.569.37 2.123.923v9.508c0 .37.277.739.738.739h2.954v11.353c0 .37.277.739.739.739h7.477a.728.728 0 00.738-.739V76.431h2.954c.37 0 .738-.277.738-.739v-9.508c.554-.553 1.293-.923 2.123-.923h1.477c.647.647 1.385 1.016 2.216 1.016.83 0 1.569-.37 2.215-1.016h1.477c1.662 0 3.046 1.385 3.046 3.047v9.507h-2.215v-7.661a.728.728 0 00-.739-.739c-.461 0-.738.277-.738.739v17.815h-2.4V76.615a.728.728 0 00-.739-.738c-.461 0-.738.277-.738.738V87.97h-2.4V70.154a.728.728 0 00-.739-.739c-.461 0-.738.277-.738.739v18.461c0 .37.277.739.739.739h7.476c.37 0 .739-.277.739-.739V79.2h2.954a.728.728 0 00.738-.739V68.308c.093-2.4-1.938-4.339-4.338-4.339zm-31.385-6.923c1.662 0 3.046 1.385 3.046 3.046 0 1.2-.738 3.046-1.661 4.062-.277.277-.554.553-.923.738h-.093c-.092 0-.277.092-.369.092-.092 0-.277 0-.37-.092h-.091c-.37-.184-.739-.461-.923-.738-.924-1.016-1.662-2.862-1.662-4.062 0-1.754 1.385-3.046 3.046-3.046zM60 55.2c1.662 0 3.046 1.384 3.046 3.046 0 1.2-.738 3.046-1.661 4.061-.277.277-.554.554-.923.739h-.093c-.092 0-.276.092-.369.092-.092 0-.277 0-.369-.092h-.092c-.37-.185-.739-.462-.923-.739-.923-1.015-1.662-2.861-1.662-4.061 0-1.754 1.385-3.046 3.046-3.046zm6.739 19.846h-2.216v-4.892a.728.728 0 00-.738-.739c-.462 0-.739.277-.739.739v16.892h-2.4V74.769a.728.728 0 00-.738-.738c-.462 0-.739.276-.739.738v12.277h-2.4V70.154a.728.728 0 00-.738-.739c-.462 0-.739.277-.739.739v4.892h-2.215v-8.585c0-1.661 1.385-3.046 3.046-3.046H57.6c.646.646 1.385 1.016 2.216 1.016.83 0 1.569-.37 2.215-1.016h1.477c1.661 0 3.046 1.385 3.046 3.046v8.585h.185zm7.107-18c1.662 0 3.046 1.385 3.046 3.046 0 1.2-.738 3.046-1.661 4.062-.277.277-.554.553-.923.738h-.092c-.093 0-.277.092-.37.092-.092 0-.276 0-.369-.092h-.092c-.37-.184-.739-.461-.923-.738-.923-1.016-1.662-2.862-1.662-4.062 0-1.754 1.385-3.046 3.046-3.046z" fill="#000" fill-opacity=".8">
		</path>
		<path d="M84.277 64.43a26.709 26.709 0 001.292-8.123c0-14.123-11.446-25.661-25.661-25.661-14.216 0-25.477 11.538-25.477 25.661 0 2.77.461 5.447 1.292 8.124.093.276.37.461.646.461h.185c.37-.092.554-.554.462-.83-.831-2.493-1.2-5.078-1.2-7.662 0-4.062 1.015-7.939 2.769-11.354h8.861c-.646 2.308-1.015 4.892-1.292 7.57 0 .368.277.738.646.738.37 0 .739-.277.739-.646.184-2.77.646-5.354 1.384-7.754h10.431v5.815c0 .37.277.739.738.739.462 0 .739-.277.739-.739v-5.815h10.43c.647 2.4 1.108 4.984 1.385 7.754 0 .369.37.646.646.646h.093c.369 0 .646-.37.646-.739a38.072 38.072 0 00-1.292-7.569H81.6c1.754 3.415 2.77 7.2 2.77 11.354 0 2.584-.462 5.17-1.2 7.661-.093.37.092.739.46.831.186.093.555-.092.647-.461zM39.416 43.662c3.323-5.446 8.769-9.415 15.138-10.892-2.862 2.215-5.17 6-6.646 10.892h-8.492zm9.876 0c2.123-6.553 5.816-10.984 9.97-11.446v11.446h-9.97zm11.447 0V32.123c4.153.462 7.846 4.892 9.969 11.446h-9.97v.092zm11.446 0c-1.477-4.892-3.877-8.677-6.646-10.892 6.369 1.477 11.815 5.446 15.138 10.892h-8.492z" fill="#000" fill-opacity=".8">
		</path>
	</symbol>
	<symbol fill="none" xmlns="http://www.w3.org/2000/svg" viewBox="0 0 120 120" id="pluses-card-icon1">
		<circle cx="60" cy="60" r="58.5" stroke="#000" stroke-opacity=".1" stroke-width="3">
		</circle>
		<g clip-path="url(#clip0)" fill="#000" fill-opacity=".8">
			<path d="M63.845 80.937H35.968V48.681l14.4-14.308h26.677V50.25c0 .37.277.738.739.738.461 0 .738-.277.738-.738V33.635a.728.728 0 00-.739-.739H50.092a.705.705 0 00-.461.185L34.768 47.942a.705.705 0 00-.184.462v33.18c0 .369.276.738.738.738h28.523c.37 0 .739-.277.739-.739 0-.461-.37-.646-.739-.646z">
			</path>
			<path d="M50.737 48.404V37.327a.728.728 0 00-.738-.739c-.462 0-.739.277-.739.739v10.43H39.014a.728.728 0 00-.738.74c0 .46.277.737.738.737h11.077a.887.887 0 00.646-.83zm20.585 6.566H40.86a.728.728 0 00-.738.738c0 .461.277.738.739.738h30.461c.37 0 .739-.277.739-.738a.728.728 0 00-.739-.739zm.646 6.714a.728.728 0 00-.739-.738h-30.46a.728.728 0 00-.739.739c0 .461.277.738.739.738H71.23c.461 0 .738-.37.738-.739zM40.86 66.923a.728.728 0 00-.738.739c0 .461.277.738.739.738h24.923a.728.728 0 00.738-.738c0-.462-.277-.739-.738-.739H40.86zm.004 5.977a.728.728 0 00-.739.738c0 .462.277.739.739.739H63.44c.37 0 .738-.277.738-.739 0-.461-.276-.738-.738-.738H40.864zm31.104-35.573a.728.728 0 00-.739-.739H60.153a.728.728 0 00-.739.739V50.25c0 .37.277.738.739.738h11.076c.37 0 .739-.276.739-.738V37.327zm-1.385 12.277h-9.692V38.065h9.692v11.539z">
			</path>
			<path fill-rule="evenodd" clip-rule="evenodd" d="M79.476 82.194l.018-.017c.857-.8 1.922-1.224 3.054-1.224 1.154 0 2.112-.937 2.112-2.152 0-1.138.47-2.261 1.257-3.048.826-.826.826-2.2 0-3.025a4.269 4.269 0 01-1.257-3.049 2.157 2.157 0 00-2.152-2.152 4.369 4.369 0 01-3.049-1.258 2.157 2.157 0 00-3.025 0 4.268 4.268 0 01-3.048 1.258 2.157 2.157 0 00-2.152 2.152c0 1.138-.47 2.261-1.258 3.049-.433.432-.64.928-.64 1.512 0 .553.213 1.086.64 1.513a4.268 4.268 0 011.258 3.048c0 1.175.957 2.152 2.152 2.152 1.138 0 2.26.47 3.048 1.258.427.427.96.64 1.513.64.52 0 1.091-.22 1.512-.64l.017-.017zM86.06 78.8c0 1.978-1.575 3.552-3.512 3.552-.767 0-1.493.283-2.099.848a3.585 3.585 0 01-2.502 1.05 3.515 3.515 0 01-2.503-1.05 2.97 2.97 0 00-2.058-.848 3.557 3.557 0 01-3.552-3.552c0-.767-.283-1.493-.848-2.058a3.515 3.515 0 01-1.05-2.503c0-.969.364-1.816 1.05-2.502a2.97 2.97 0 00.848-2.059 3.557 3.557 0 013.552-3.552c.767 0 1.493-.282 2.058-.847a3.557 3.557 0 015.005 0 2.97 2.97 0 002.059.847 3.557 3.557 0 013.552 3.552c0 .767.282 1.493.847 2.059a3.557 3.557 0 010 5.005 2.969 2.969 0 00-.847 2.058zm-.215 3.82l1.94 4.121.961 2.079-5.093-1.856-1.061 2.918-.911 2.036-.938-1.963-2.018-4.318 1.269-.593 1.612 3.451 1.21-3.325 3.236 1.176-1.473-3.13 1.266-.596zm-9.331 3.21l-2.089 4.047-1.063 2.028-1.629-5.171-2.96.934-2.17.518.986-1.94 2.197-4.23 1.243.646-1.757 3.38 3.375-1.064 1.036 3.283 1.587-3.074 1.244.642z">
			</path>
			<path fill-rule="evenodd" clip-rule="evenodd" d="M83.74 71.38a6.331 6.331 0 00-7.525-3.558 6.333 6.333 0 107.997 6.95v-.002l-1.43-.194a4.891 4.891 0 11-.364-2.618l1.322-.577z">
			</path>
		</g>
		<defs>
			<clipPath id="clip0">
				<path fill="#fff" transform="translate(30 30)" d="M0 0h60v60H0z">
				</path>
			</clipPath>
		</defs>
	</symbol>
	<symbol fill="none" xmlns="http://www.w3.org/2000/svg" viewBox="0 0 70 70" id="item2">
		<path d="M29.531 42.001v-2.816c.374-.315.748-.627 1.122-.935l1.122-.924a35.707 35.707 0 002.244-2.013c.631-.623 1.115-1.225 1.452-1.804.338-.58.506-1.162.506-1.749 0-.565-.165-.99-.495-1.276-.322-.293-.81-.44-1.463-.44a4.43 4.43 0 00-1.056.132 7.695 7.695 0 00-1.078.352 9.581 9.581 0 00-1.067.517c-.352.19-.693.4-1.023.627l-.352-4.004c.345-.154.726-.297 1.144-.429.418-.14.862-.264 1.331-.374.47-.11.957-.194 1.463-.253.506-.066 1.02-.099 1.54-.099 1.174 0 2.164.187 2.97.561.814.367 1.427.902 1.837 1.606.418.697.627 1.533.627 2.508 0 .748-.143 1.492-.429 2.233-.286.733-.733 1.456-1.342 2.167-.601.711-1.375 1.415-2.32 2.112l-2.014 1.507-.495-.814h6.722v3.608H29.53z" fill="#DEC377">
		</path>
		<circle cx="35" cy="35.001" r="34.5" stroke="#DEC377" stroke-opacity=".75">
		</circle>
	</symbol>
	<symbol fill="none" xmlns="http://www.w3.org/2000/svg" viewBox="0 0 70 70" id="item1">
		<path d="M31.174 32.87l-.968-3.245c1.049-.484 2.098-.964 3.146-1.441 1.056-.484 2.109-.968 3.157-1.452l-.165 3.74c-.858.396-1.72.796-2.585 1.199-.858.396-1.72.796-2.585 1.199zM34.298 42V28.58l2.211-1.848 2.046.11V42h-4.257z" fill="#DEC377">
		</path>
		<circle cx="35" cy="35" r="34.5" stroke="#DEC377" stroke-opacity=".75">
		</circle>
	</symbol>
	<!-- footer-social-icons -->
	<symbol fill="none" xmlns="http://www.w3.org/2000/svg" viewBox="0 0 30 30" id="facebook">
		<path d="M27.19 1.78H2.81a1.06 1.06 0 00-1.06 1.06v24.38c0 .587.474 1.06 1.06 1.06h24.38c.586 0 1.06-.473 1.06-1.06V2.84a1.06 1.06 0 00-1.06-1.06zm-3.06 7.735h-2.117c-1.66 0-1.981.788-1.981 1.948v2.554h3.961l-.516 3.998h-3.445V28.28H15.9V18.018h-3.455v-4.001H15.9v-2.948c0-3.422 2.09-5.287 5.144-5.287 1.464 0 2.72.11 3.088.159v3.574h-.004z" fill="#000" fill-opacity=".5">
		</path>
	</symbol>
	<symbol fill="none" xmlns="http://www.w3.org/2000/svg" viewBox="0 0 30 30" id="instagram">
		<path d="M10.151 15.12c0-1.38.483-2.553 1.45-3.52.966-.966 2.139-1.449 3.52-1.449 1.38 0 2.553.483 3.519 1.45.966.966 1.449 2.139 1.449 3.52 0 1.38-.483 2.553-1.45 3.519-.965.966-2.139 1.449-3.519 1.449-1.38 0-2.553-.483-3.52-1.45-.966-.965-1.449-2.139-1.449-3.519zm18.22-1.656v11.594c0 .914-.324 1.695-.971 2.342a3.192 3.192 0 01-2.342.97H5.183a3.192 3.192 0 01-2.342-.97 3.192 3.192 0 01-.97-2.342V5.183c0-.915.323-1.695.97-2.342a3.191 3.191 0 012.342-.97h19.875c.914 0 1.695.323 2.342.97s.97 1.427.97 2.342v4.968h-6.625a8.476 8.476 0 00-2.898-2.42 8.023 8.023 0 00-3.727-.892c-1.328 0-2.57.297-3.726.893a8.475 8.475 0 00-2.899 2.42H1.87v3.312h5.124a8.968 8.968 0 00-.155 1.656 8.08 8.08 0 001.113 4.154 8.283 8.283 0 003.015 3.015A8.08 8.08 0 0015.12 23.4a8.08 8.08 0 004.154-1.112 8.284 8.284 0 003.015-3.015A8.08 8.08 0 0023.4 15.12a8.97 8.97 0 00-.155-1.656h5.124z" fill="#000" fill-opacity=".5">
		</path>
	</symbol>
	<symbol fill="none" xmlns="http://www.w3.org/2000/svg" viewBox="0 0 30 30" id="linkedin">
		<path d="M26.375 1.875H3.869C2.838 1.875 2 2.725 2 3.768v22.464c0 1.043.838 1.893 1.87 1.893h22.505c1.031 0 1.875-.85 1.875-1.893V3.768a1.888 1.888 0 00-1.875-1.893zm-16.441 22.5H6.043V11.848h3.896v12.527h-.005zM7.988 10.137a2.257 2.257 0 010-4.512 2.26 2.26 0 012.256 2.256 2.253 2.253 0 01-2.256 2.256zm16.53 14.238h-3.891v-6.094c0-1.453-.03-3.322-2.021-3.322-2.028 0-2.338 1.582-2.338 3.217v6.199h-3.891V11.848h3.732v1.71h.053c.522-.984 1.793-2.02 3.686-2.02 3.937 0 4.67 2.595 4.67 5.97v6.867z" fill="#000" fill-opacity=".5">
		</path>
	</symbol>
	<symbol fill="none" xmlns="http://www.w3.org/2000/svg" viewBox="0 0 30 30" id="odnoklassniki">
		<path d="M12.793 10.377a2.34 2.34 0 012.332-2.344 2.34 2.34 0 012.332 2.344 2.334 2.334 0 01-2.332 2.332 2.338 2.338 0 01-2.332-2.332zm15.457-5.69v20.625a2.813 2.813 0 01-2.813 2.813H4.813A2.813 2.813 0 012 25.312V4.688a2.813 2.813 0 012.813-2.812h20.625a2.813 2.813 0 012.812 2.813zm-17.877 5.69c0 2.613 2.133 4.74 4.752 4.74 2.62 0 4.752-2.12 4.752-4.74a4.751 4.751 0 10-9.504 0zm10.225 5.314c-.27-.533-1.014-.984-1.998-.21 0 0-1.33 1.054-3.475 1.054S11.65 15.48 11.65 15.48c-.984-.773-1.728-.322-1.998.211-.463.944.065 1.39 1.254 2.168 1.014.65 2.414.891 3.317.985l-.756.756c-1.067 1.054-2.08 2.08-2.795 2.794-1.031 1.032.627 2.684 1.664 1.676l2.795-2.806c1.066 1.066 2.092 2.091 2.795 2.806 1.031 1.008 2.695-.627 1.676-1.675L16.807 19.6l-.762-.756c.908-.094 2.29-.346 3.293-.985 1.195-.779 1.717-1.23 1.26-2.168z" fill="#000" fill-opacity=".5">
		</path>
	</symbol>
	<symbol fill="none" xmlns="http://www.w3.org/2000/svg" viewBox="0 0 30 30" id="vk">
		<path d="M28.5 25.5v-21c0-1.65-1.355-3-3.008-3H4.508C2.784 1.5 1.5 2.78 1.5 4.5v21c0 1.722 1.283 3 3.008 3h20.985a3.012 3.012 0 003.007-3zm-5.724-8.09s1.698 1.676 2.116 2.453c.012.017.017.032.021.038.17.285.213.51.128.675-.141.274-.621.412-.785.424h-2.998c-.21 0-.645-.054-1.173-.419-.405-.282-.806-.748-1.195-1.203-.582-.675-1.087-1.26-1.593-1.26a.574.574 0 00-.19.032c-.385.123-.874.67-.874 2.133 0 .457-.36.718-.615.718h-1.374c-.468 0-2.905-.163-5.064-2.442-2.649-2.79-5.028-8.386-5.049-8.436-.15-.361.16-.557.498-.557h3.03c.407 0 .537.245.63.466.105.25.501 1.261 1.149 2.399 1.054 1.849 1.704 2.602 2.221 2.602a.567.567 0 00.276-.073c.677-.374.551-2.786.521-3.284 0-.095-.002-1.079-.346-1.551-.25-.342-.671-.473-.926-.522.104-.143.24-.26.399-.339.463-.231 1.299-.264 2.13-.264h.462c.901.012 1.135.07 1.461.153.659.157.672.585.614 2.04-.017.414-.035.883-.035 1.434 0 .118-.005.249-.005.384-.02.744-.044 1.586.48 1.93a.433.433 0 00.227.066c.183 0 .73 0 2.214-2.545.652-1.123 1.155-2.45 1.19-2.548a.792.792 0 01.221-.275.52.52 0 01.25-.058h3.562c.39 0 .654.058.704.207.085.238-.017.966-1.645 3.165l-.724.96c-1.476 1.931-1.476 2.03.087 3.497z" fill="#000" fill-opacity=".5">
		</path>
	</symbol>
	<symbol fill="none" xmlns="http://www.w3.org/2000/svg" viewBox="0 0 30 30" id="youtube">
		<path d="M17.359 22.05v-2.708c0-.575-.167-.862-.5-.862-.196 0-.386.092-.57.276v3.864c.184.184.374.276.57.276.333 0 .5-.282.5-.846zm3.174-2.104h1.138v-.587c0-.586-.19-.88-.569-.88-.38 0-.57.294-.57.88v.587zm-9.85-4.588v1.207h-1.38v7.297H8.027v-7.297H6.68v-1.207h4.002zm3.467 2.173v6.33h-1.155v-.69c-.449.518-.886.777-1.311.777-.38 0-.621-.161-.725-.483-.069-.195-.103-.506-.103-.931V17.53h1.138v4.658c0 .276.006.425.017.448.012.172.098.259.26.259.23 0 .47-.178.724-.535v-4.83h1.155zm4.347 1.915v2.518c0 .598-.04 1.018-.12 1.26-.139.482-.443.724-.915.724-.402 0-.793-.236-1.173-.707v.62h-1.156v-8.503h1.156v2.777c.368-.46.76-.69 1.173-.69.472 0 .776.241.915.724.08.242.12.667.12 1.277zm4.33 2.225v.155c0 .334-.012.581-.035.742-.034.253-.12.483-.258.69-.31.46-.77.69-1.38.69-.598 0-1.064-.218-1.398-.655-.241-.311-.362-.805-.362-1.484v-2.225c0-.679.115-1.173.345-1.484.334-.437.794-.655 1.38-.655.587 0 1.035.218 1.346.655.241.334.362.828.362 1.484v1.31h-2.294v1.122c0 .587.195.88.586.88.276 0 .449-.15.518-.449l.008-.12a3.5 3.5 0 00.009-.285v-.371h1.173zm-7.78-14.214v2.691c0 .587-.184.88-.552.88-.368 0-.552-.293-.552-.88v-2.69c0-.599.184-.898.552-.898.368 0 .552.3.552.897zm9.194 12.3c0-2.036-.109-3.531-.327-4.486a2.36 2.36 0 00-.742-1.268 2.33 2.33 0 00-1.311-.595c-1.564-.172-3.933-.258-7.107-.258-3.162 0-5.526.086-7.09.258a2.303 2.303 0 00-1.32.595 2.39 2.39 0 00-.732 1.268c-.23 1-.345 2.496-.345 4.485 0 2.024.115 3.52.345 4.485.115.495.359.915.733 1.26.373.345.808.546 1.302.603 1.576.173 3.945.259 7.107.259 3.162 0 5.531-.086 7.107-.259a2.263 2.263 0 001.302-.604c.374-.345.619-.764.733-1.259.23-.966.345-2.46.345-4.485zM11.218 8.526L12.77 3.42h-1.293l-.88 3.363-.914-3.363H8.337c.08.264.213.66.397 1.19l.414 1.19c.402 1.185.667 2.093.793 2.726v3.467h1.277V8.527zm4.985 1.397V7.68c0-.667-.12-1.167-.362-1.5-.334-.437-.782-.656-1.346-.656-.586 0-1.035.219-1.345.656-.242.333-.362.833-.362 1.5v2.243c0 .667.12 1.167.362 1.5.31.438.759.656 1.345.656.564 0 1.012-.218 1.346-.655.241-.31.362-.811.362-1.501zm3.122 2.07h1.156V5.61h-1.156v4.882c-.253.357-.494.535-.724.535-.173 0-.265-.092-.276-.276-.012-.023-.017-.173-.017-.449V5.611h-1.156v5.055c0 .425.034.741.103.948.127.31.374.466.742.466.414 0 .857-.259 1.328-.776v.69zm8.677-5.244v16.56c0 1.368-.005 3.112-.976 4.084-.972.972-2.623.884-3.992.884H6.474c-1.368 0-3.157.088-4.13-.884-.97-.972-.838-2.716-.838-4.084V6.75c0-1.369-.133-3.114.839-4.085.972-.972 2.76-.883 4.13-.883h16.559c1.369 0 3.02-.089 3.992.883.971.971.976 2.716.976 4.085z" fill="#000" fill-opacity=".5">
		</path>
	</symbol>
	<!-- footer-line -->
	<symbol fill="none" xmlns="http://www.w3.org/2000/svg" viewBox="0 0 60 12" id="footer-line">
		<path d="M0 5.5h59v1H0v-1z" fill="#000" fill-opacity=".75">
		</path>
		<path d="M53.84 11.82l-.84-.84L57.98 6 53 1.02l.84-.84L59.66 6l-5.82 5.82z" fill="#000" fill-opacity=".75">
		</path>
	</symbol>
</svg>
