<svg width="0" height="0" class="hidden">
	<symbol fill="none" xmlns="http://www.w3.org/2000/svg" viewBox="0 0 120 120" id="advantage-card-icon1">
		<circle cx="60" cy="60" r="58.5" stroke="#000" stroke-opacity=".1" stroke-width="3">
		</circle>
		<path d="M82.715 46.811c-13.477-.184-22.153-12.184-22.246-12.276a.692.692 0 00-1.107 0c-.093.092-8.77 12.092-22.247 12.276a.63.63 0 00-.646.647c0 .276-2.584 27.692 23.262 38.953.092 0 .184.093.277.093.092 0 .184 0 .277-.093 25.754-11.169 23.261-38.677 23.261-38.953-.184-.37-.461-.647-.83-.647zm-22.8 38.123c-22.43-9.876-22.338-32.769-22.153-36.738 12-.462 20.03-9.415 22.153-12.092 2.123 2.677 10.154 11.63 22.154 12.092.185 3.97.277 26.862-22.154 36.739z" fill="#000" fill-opacity=".8">
		</path>
		<path d="M77.361 51.796c-7.569-1.477-13.384-5.815-16.984-9.139-.23-.212-.462-.435-.462-.435l-.461.435c-3.508 3.324-9.416 7.662-16.985 9.139-.214.053-.59.134-.59.134s.036.45.036.605c.554 7.2 3.508 20.4 17.631 27.692.092.092.185.092.277.092.092 0 .185 0 .277-.092 14.215-7.293 16.948-20.51 17.63-27.693l.065-.658s-.018-.006-.434-.08zM59.915 78.842c-12.923-6.83-15.877-18.83-16.523-25.754 7.292-1.569 12.923-5.63 16.523-8.953 3.6 3.323 9.323 7.292 16.523 8.953-.553 6.923-3.6 18.923-16.523 25.754z" fill="#000" fill-opacity=".8">
		</path>
		<path d="M56.038 55.212v3.046h-2.86v10.707h14.399V58.258h-2.861V55.21c0-2.4-1.939-4.43-4.431-4.43-2.493 0-4.246 2.03-4.246 4.43zm10.154 12.276H54.654v-7.846h11.631v7.846h-.093zm-8.676-12.276c0-1.662 1.292-3.047 2.953-3.047 1.662 0 3.047 1.385 3.047 3.047v3.046h-6V55.21z" fill="#000" fill-opacity=".8">
		</path>
		<path d="M60.377 61.95h-.739v3.323h1.477V61.95h-.738z" fill="#000" fill-opacity=".8">
		</path>
	</symbol>
	<symbol fill="none" xmlns="http://www.w3.org/2000/svg" viewBox="0 0 120 120" id="advantage-card-icon2">
		<circle cx="60" cy="60" r="58.5" stroke="#000" stroke-opacity=".1" stroke-width="3">
		</circle>
		<path d="M70.547 72.092c4.43 0 8.03-3.6 8.03-8.123 0-1.754.739-3.507 1.939-4.707 3.138-3.139 3.138-8.308 0-11.447-1.292-1.292-1.939-2.953-1.939-4.707 0-4.431-3.6-8.123-8.123-8.123-1.753 0-3.507-.739-4.707-1.939-3.139-3.138-8.308-3.138-11.446 0-1.293 1.293-2.954 1.939-4.708 1.939-4.43 0-8.123 3.6-8.123 8.123 0 1.754-.739 3.508-1.939 4.708-1.569 1.569-2.4 3.507-2.4 5.722 0 2.124.831 4.154 2.4 5.724 1.293 1.292 1.939 2.953 1.939 4.707 0 4.431 3.6 8.123 8.123 8.123 1.754 0 3.508.739 4.708 1.939 1.569 1.57 3.6 2.4 5.723 2.4 2.03 0 4.153-.83 5.723-2.4 1.384-1.293 3.046-1.939 4.8-1.939zm-15.139.924c-1.569-1.57-3.6-2.4-5.723-2.4-3.692 0-6.738-3.047-6.738-6.739 0-2.123-.831-4.154-2.4-5.723-1.293-1.292-1.939-2.954-1.939-4.708s.739-3.508 1.939-4.707c1.569-1.57 2.4-3.6 2.4-5.723 0-3.693 3.046-6.739 6.738-6.739 2.123 0 4.154-.83 5.723-2.4a7.24 7.24 0 014.708-1.754c1.754 0 3.415.646 4.708 1.939 1.569 1.477 3.6 2.307 5.723 2.307 3.692 0 6.646 3.047 6.646 6.739 0 2.123.83 4.154 2.4 5.723 2.584 2.584 2.584 6.83 0 9.508-1.57 1.569-2.4 3.6-2.4 5.723 0 3.692-3.046 6.738-6.739 6.738-2.123 0-4.153.83-5.723 2.4-2.492 2.492-6.738 2.492-9.323-.184z" fill="#000" fill-opacity=".8">
		</path>
		<path d="M76.454 53.538a.728.728 0 00-.738-.738.728.728 0 00-.738.738c0 8.216-6.739 14.954-15.047 15.047-8.215 0-14.953-6.739-15.046-15.047 0-2.307.462-4.43 1.477-6.461 2.677-5.17 8.031-8.492 13.754-8.492 6.277 0 12 3.969 14.123 9.969.092.369.554.554.923.461a.72.72 0 00.37-.369.588.588 0 000-.554C73.223 41.631 67.038 37.2 60.115 37.2c-3.138 0-6.185.923-8.861 2.585a16.047 16.047 0 00-5.908 6.738 16.997 16.997 0 00-1.57 7.108c0 9.046 7.385 16.43 16.431 16.43 9.046 0 16.246-7.476 16.246-16.523z" fill="#000" fill-opacity=".8">
		</path>
		<path d="M71.285 49.939c-.092-.277-.277-.462-.554-.462l-6.923-1.015-3.046-6.277c-.277-.462-1.015-.462-1.2 0l-3.139 6.277-6.83 1.015c-.277 0-.462.185-.554.462a.718.718 0 00.184.738l4.985 4.892-1.292 6.739c0 .277.092.554.277.646.184.185.461.185.738.092l6.185-3.23 6.184 3.23c.093.093.185.093.277.093.185 0 .277 0 .37-.093a.997.997 0 00.276-.646l-1.2-6.83 4.985-4.893c.277-.184.277-.462.277-.738zm-6.462 4.8c-.184.184-.276.369-.184.646l1.015 5.815-5.261-2.77c-.093-.091-.185-.091-.277-.091-.093 0-.185 0-.277.092l-5.262 2.77 1.016-5.816c0-.185 0-.462-.185-.646l-4.246-4.154 5.815-.831c.185 0 .462-.185.554-.37l2.585-5.26 2.584 5.26c.093.185.277.37.554.37l5.816.83-4.246 4.155zM55.5 77.63c-.369-.184-.738 0-.922.37l-4.154 8.862-2.585-7.2a.72.72 0 00-.37-.37.589.589 0 00-.553 0l-7.2 2.585 3.97-8.585c.184-.369 0-.738-.37-.923-.37-.184-.739 0-.923.37l-4.708 10.153c-.092.277-.092.554.093.739a.718.718 0 00.738.184l8.123-2.953 2.954 8.123c.092.277.37.461.646.461.277 0 .554-.184.646-.369l4.8-10.338c.37-.554.185-.924-.184-1.108zm25.477 5.909c.185-.185.277-.462.093-.739l-4.431-9.415c-.185-.37-.554-.462-.923-.37-.37.185-.462.554-.37.924l3.693 7.938-7.2-2.585a.589.589 0 00-.554 0 .72.72 0 00-.37.37l-2.492 7.107-3.877-8.4c-.184-.369-.553-.461-.923-.369-.369.185-.461.554-.369.923L67.87 88.8c.092.277.369.37.646.37a.694.694 0 00.646-.462l2.954-8.123 8.123 2.954c.277.276.554.184.738 0z" fill="#000" fill-opacity=".8">
		</path>
	</symbol>
	<symbol fill="none" xmlns="http://www.w3.org/2000/svg" viewBox="0 0 120 120" id="advantage-card-icon3">
		<circle cx="60" cy="60" r="58.5" stroke="#000" stroke-opacity=".1" stroke-width="3">
		</circle>
		<path d="M60 55.108a.728.728 0 00.738-.739c0-.461-.277-.738-.738-.738-3.416 0-6.277 2.77-6.277 6.277 0 3.508 2.77 6.277 6.277 6.277 3.508 0 6.277-2.77 6.277-6.277a.728.728 0 00-.739-.739c-.461 0-.738.277-.738.739 0 2.677-2.216 4.892-4.892 4.892-2.677 0-4.893-2.215-4.893-4.892 0-2.677 2.308-4.8 4.985-4.8z" fill="#000" fill-opacity=".8">
		</path>
		<path d="M79.662 44.585c-.278.184-.37.646-.185.923 3.138 4.154 4.707 9.138 4.707 14.4 0 13.477-10.8 24.277-24.184 24.277-13.385 0-24.277-10.8-24.277-24.185 0-13.385 10.892-24.277 24.277-24.277a24.224 24.224 0 0114.4 4.708c.277.184.738.184.923-.185.185-.277.185-.738-.185-.923-4.43-3.323-9.692-4.984-15.23-4.984-14.031 0-25.57 11.538-25.57 25.661 0 14.123 11.447 25.662 25.662 25.662A25.607 25.607 0 0085.662 60c0-5.538-1.754-10.8-4.985-15.23-.277-.278-.739-.37-1.016-.185z" fill="#000" fill-opacity=".8">
		</path>
		<path d="M70.8 44.954c.185-.277.092-.739-.185-.923-3.138-2.123-6.738-3.139-10.523-3.139-10.523 0-19.2 8.585-19.2 19.2 0 10.616 8.585 19.2 19.2 19.2 10.616 0 19.2-8.584 19.2-19.2 0-3.784-1.107-7.384-3.138-10.523-.185-.277-.646-.369-.923-.184-.277.184-.37.646-.185.923C76.985 53.169 78 56.585 78 60.092c0 9.785-7.938 17.816-17.815 17.816a17.767 17.767 0 01-17.816-17.816 17.767 17.767 0 0117.816-17.815c3.507 0 6.923 1.015 9.784 2.954.185.184.554.092.831-.277z" fill="#000" fill-opacity=".8">
		</path>
		<path d="M66.092 49.662c.185-.37 0-.739-.277-.923-1.754-.923-3.784-1.385-5.815-1.385-7.016 0-12.739 5.723-12.739 12.739 0 7.015 5.723 12.738 12.739 12.738 7.015 0 12.738-5.723 12.738-12.739 0-2.03-.461-3.969-1.384-5.815-.185-.37-.554-.462-.923-.277-.37.185-.462.554-.277.923.83 1.57 1.2 3.323 1.2 5.17A11.346 11.346 0 0160 71.445a11.346 11.346 0 01-11.354-11.353A11.346 11.346 0 0160 48.739c1.846 0 3.508.461 5.17 1.2.276.184.738 0 .922-.277z" fill="#000" fill-opacity=".8">
		</path>
		<path d="M86.77 38.123h-3.877l3.415-3.508a.724.724 0 000-1.015c-.277-.277-.646-.184-.923.092l-3.416 3.416V33.23a.728.728 0 00-.738-.739c-.462 0-.738.277-.738.739v5.261L59.539 59.54a.724.724 0 000 1.015.706.706 0 00.461.185c.185 0 .37-.093.462-.185l21.046-21.046h5.261c.37 0 .739-.277.739-.739 0-.461-.37-.646-.739-.646z" fill="#000" fill-opacity=".8">
		</path>
	</symbol>
	<symbol fill="none" xmlns="http://www.w3.org/2000/svg" viewBox="0 0 120 120" id="advantage-card-icon4">
		<circle cx="60" cy="60" r="58.5" stroke="#000" stroke-opacity=".1" stroke-width="3">
		</circle>
		<path d="M75.293 83.82H39.679V48.444l12.264-12.185h22.72V49.78a.62.62 0 00.63.629c.392 0 .628-.236.628-.63V35.63a.62.62 0 00-.629-.629H51.709a.6.6 0 00-.393.157L38.657 47.815a.6.6 0 00-.157.393V84.37a.62.62 0 00.629.629h36.164a.62.62 0 00.628-.629c0-.393-.314-.55-.629-.55z" fill="#000" fill-opacity=".8">
		</path>
		<path d="M52.258 48.207v-9.434a.62.62 0 00-.63-.629c-.392 0-.628.236-.628.63v8.883h-8.727a.62.62 0 00-.629.629c0 .393.236.629.63.629h9.433a.755.755 0 00.55-.708zM69.79 53.16H43.847a.62.62 0 00-.63.63c0 .392.237.628.63.628H69.79a.62.62 0 00.629-.629.62.62 0 00-.629-.629zm.55 5.268a.62.62 0 00-.629-.63H43.768a.62.62 0 00-.63.63c0 .393.236.629.63.629H69.71a.62.62 0 00.629-.63zm-26.493 4.166a.62.62 0 00-.63.63c0 .392.237.628.63.628h21.226a.62.62 0 00.629-.629c0-.393-.236-.629-.629-.629H43.847z" fill="#000" fill-opacity=".8">
		</path>
		<path d="M77.494 60.236c-4.56 0-8.57 2.83-10.142 7.075H45.497a.6.6 0 00-.393.157l-3.145 3.145a.6.6 0 00-.157.393c0 .157 0 .236.078.393l3.145 3.145a.6.6 0 00.393.157h3.223a.6.6 0 00.394-.157l1.808-1.808 1.965 1.808a.6.6 0 00.393.157h.786a.6.6 0 00.393-.157l1.808-1.808 1.809 1.808a.6.6 0 00.393.157h.786a.6.6 0 00.393-.157l1.808-1.808 1.808 1.808a.6.6 0 00.393.157h3.538c1.573 4.246 5.582 7.076 10.142 7.076 5.975 0 10.849-4.874 10.849-10.85 0-5.974-4.639-10.691-10.613-10.691zm0 20.44c-4.246 0-7.862-2.673-9.198-6.682a.591.591 0 00-.55-.393H64.05l-2.044-2.044a.6.6 0 00-.393-.158.6.6 0 00-.393.158l-2.123 1.965h-.314l-2.044-2.044a.617.617 0 00-.865 0l-2.044 2.044h-.314l-2.044-2.044a.617.617 0 00-.865 0l-2.044 2.044h-2.83l-2.595-2.594 2.595-2.595h22.09a.591.591 0 00.551-.393c1.337-3.93 4.953-6.603 9.12-6.603a9.663 9.663 0 019.67 9.67 9.663 9.663 0 01-9.67 9.67z" fill="#000" fill-opacity=".8">
		</path>
		<path d="M81.424 66.918a4.06 4.06 0 00-4.088 4.088 4.06 4.06 0 004.088 4.088 4.06 4.06 0 004.088-4.088 4.06 4.06 0 00-4.088-4.088zm0 6.997c-1.572 0-2.909-1.336-2.909-2.909 0-1.572 1.337-2.909 2.91-2.909 1.572 0 2.908 1.337 2.908 2.91a2.902 2.902 0 01-2.909 2.908zM70.34 38.773a.62.62 0 00-.63-.629h-9.433a.62.62 0 00-.63.63V49.78a.62.62 0 00.63.629h9.434a.62.62 0 00.629-.63V38.774zM69.16 49.23h-8.254v-9.827h8.255v9.827z" fill="#000" fill-opacity=".8">
		</path>
	</symbol>
</svg>
